<svg id="Layer_1" xmlns="http://www.w3.org/2000/svg" xmlns:xlink="http://www.w3.org/1999/xlink" viewBox="0 0 403.3 82"><style>.st7{fill-rule:evenodd;clip-rule:evenodd;fill:#33363d}</style><defs><path id="SVGID_1_" d="M.9 40.5c0 22.1 17.9 40 40 40s40-17.9 40-40S63 .5 40.9.5c-22 0-40 17.9-40 40"/></defs><clipPath id="SVGID_2_"><use xlink:href="#SVGID_1_" overflow="visible"/></clipPath><linearGradient id="SVGID_3_" gradientUnits="userSpaceOnUse" x1="-208.788" y1="958.063" x2="-208.345" y2="958.063" gradientTransform="scale(180.7) rotate(33.687 1477.72 823.99)"><stop offset="0" stop-color="#b464d8"/><stop offset="1" stop-color="#1d2cd8"/></linearGradient><path clip-path="url(#SVGID_2_)" fill="url(#SVGID_3_)" d="M-36 55.9l92.3 61.5 61.6-92.3-92.3-61.5z"/><g><defs><path id="SVGID_4_" d="M.9 40.5c0 22.1 17.9 40 40 40s40-17.9 40-40S63 .5 40.9.5c-22 0-40 17.9-40 40"/></defs><clipPath id="SVGID_5_"><use xlink:href="#SVGID_4_" overflow="visible"/></clipPath><g opacity=".5" clip-path="url(#SVGID_5_)"><defs><path id="SVGID_6_" d="M27.3-12.5h69.3v64.9H27.3z"/></defs><clipPath id="SVGID_7_"><use xlink:href="#SVGID_6_" overflow="visible"/></clipPath><g clip-path="url(#SVGID_7_)"><defs><path id="SVGID_8_" d="M85.5 15.1l10 21.1c2.7 5.7.3 12.5-5.4 15.2-1.8.9-3.8 1.2-5.8 1.1l-23.2-1.8-23.3-1.8c-6.3-.5-11-6-10.5-12.3.2-2 .8-3.9 2-5.6l13.2-19.2L55.8-7.5c3.6-5.2 10.7-6.5 15.9-2.9 1.7 1.1 3 2.7 3.8 4.5l10 21z"/></defs><clipPath id="SVGID_9_"><use xlink:href="#SVGID_8_" overflow="visible"/></clipPath><linearGradient id="SVGID_10_" gradientUnits="userSpaceOnUse" x1="-211.703" y1="958.431" x2="-211.26" y2="958.431" gradientTransform="rotate(61.238 89742.688 83914.823) scale(127.4604)"><stop offset="0" stop-color="#ff55e3"/><stop offset="1" stop-color="#2a18d8"/></linearGradient><path clip-path="url(#SVGID_9_)" fill="url(#SVGID_10_)" d="M-1.2 1.4l44.6 81.3 82.9-45.6-44.6-81.2z"/></g></g><g opacity=".4" clip-path="url(#SVGID_5_)"><defs><path id="SVGID_11_" d="M-21.9 28.9h92.8v78.2h-92.8z"/></defs><clipPath id="SVGID_12_"><use xlink:href="#SVGID_11_" overflow="visible"/></clipPath><g clip-path="url(#SVGID_12_)"><defs><path id="SVGID_13_" d="M-17.9 48.7l68.1-19.6c2.9-.8 6 .9 6.8 3.8l13.7 47.6c.8 2.9-.9 6-3.8 6.8L-1.2 107c-2.9.8-6-.9-6.8-3.8l-13.7-47.6c-.8-3 .9-6 3.8-6.9"/></defs><clipPath id="SVGID_14_"><use xlink:href="#SVGID_13_" overflow="visible"/></clipPath><linearGradient id="SVGID_15_" gradientUnits="userSpaceOnUse" x1="-212.59" y1="964.979" x2="-212.147" y2="964.979" gradientTransform="matrix(-72.75 99.2 -99.2 -72.75 80312.125 91321.61)"><stop offset="0" stop-color="#ff55e3"/><stop offset="1" stop-color="#2a18d8"/></linearGradient><path clip-path="url(#SVGID_14_)" fill="url(#SVGID_15_)" d="M10.4-16.5L-60.4 80l99 72.7 70.9-96.6z"/></g></g></g><path class="st7" d="M343.4 58.3h-3.3c-1.3 0-2.5 0-3.4-.1-1-.1-2-.2-3-.4s-1.9-.5-2.6-.9c-.7-.4-1.4-.9-2.1-1.5-.7-.6-1.2-1.4-1.6-2.2-.4-.9-.7-1.9-.9-3.1-.2-1.2-.3-2.6-.3-4.2v-16h-7.1v-5.5h7.4v-8l7.8-2.4v10.4h8.8v5.5h-8.8v16.5c0 1.1.1 1.9.2 2.6.2.7.4 1.2.7 1.6.3.4.9.7 1.7.9.8.2 1.6.3 2.6.4.9.1 2.2.1 3.9.1v6.3zm-49 0V32.9c0-1.3-.1-2.7-.2-4.1-.1-1.4-.2-2.5-.3-3.3l-.2-1.2h8.7v4.5c1.3-1.8 2.7-3.1 4-4 1.3-.9 2.8-1.3 4.5-1.3 1 0 2.1.2 3.4.5v7.2c-1.5-.5-2.8-.7-4.1-.7-2.3 0-4.1.7-5.5 2.2-1.4 1.5-2.1 3.6-2.1 6.4v19.3h-8.2zm-23.2-5.9c1.6 0 3-.3 4.2-.9 1.2-.6 2.2-1.4 2.9-2.5.7-1.1 1.2-2.3 1.5-3.6.3-1.3.5-2.7.5-4.2 0-3.2-.8-5.9-2.3-8-1.5-2.1-3.8-3.1-6.8-3.1-2 0-3.8.5-5.2 1.5-1.4 1-2.4 2.4-3 4-.6 1.6-.9 3.5-.9 5.6 0 2.1.3 3.9.9 5.5.6 1.6 1.6 3 3 4.1 1.3 1.1 3.1 1.6 5.2 1.6m.1 6.7c-2.9 0-5.6-.5-7.9-1.4-2.3-1-4.2-2.3-5.6-3.9-1.4-1.6-2.5-3.5-3.2-5.6-.7-2.1-1.1-4.4-1.1-6.8 0-2.5.4-4.7 1.1-6.9.7-2.1 1.8-4 3.3-5.7 1.4-1.6 3.3-2.9 5.6-3.9s4.9-1.4 7.8-1.4c2.9 0 5.6.5 7.8 1.4 2.3.9 4.1 2.2 5.5 3.9 1.4 1.6 2.4 3.5 3.1 5.7.7 2.1 1 4.5 1 7 0 2.4-.4 4.6-1.1 6.7-.7 2.1-1.8 4-3.2 5.6-1.4 1.7-3.2 3-5.5 3.9-2.1.9-4.7 1.4-7.6 1.4m-55.9 12.3V35.7c0-2-.2-5.8-.6-11.4h8.7v4.9c.3-1.2 1.4-2.5 3.3-3.8 1.9-1.3 4.3-1.9 7.1-1.9 3 0 5.6.8 7.9 2.5 2.3 1.6 4 3.8 5.1 6.4 1.2 2.6 1.7 5.5 1.7 8.6 0 2.3-.3 4.6-1 6.7s-1.6 4.1-2.9 5.8c-1.3 1.7-2.9 3.1-4.8 4.1-2 1-4.1 1.5-6.5 1.5-2.7 0-4.9-.6-6.8-1.9-1.9-1.3-2.9-2.4-3.2-3.5v17.8h-8zm16.2-19c1.5 0 2.8-.3 4-.9 1.1-.6 2-1.4 2.7-2.5.6-1.1 1.1-2.2 1.5-3.5.3-1.3.5-2.7.5-4.2 0-2.1-.3-4-.9-5.6-.6-1.6-1.5-3-2.9-4-1.3-1-3-1.6-4.9-1.6-1.9 0-3.5.5-4.8 1.5-1.3 1-2.3 2.3-2.8 3.9-.6 1.6-.9 3.4-.9 5.5 0 1.5.2 3 .5 4.3.3 1.3.8 2.5 1.5 3.6s1.6 1.9 2.7 2.5c1 .7 2.3 1 3.8 1m-36.5 6.7c-5.7 0-10.2-1.6-13.5-4.9-3.3-3.3-4.9-7.5-4.9-12.8 0-2.4.4-4.7 1.2-6.8.8-2.1 1.9-4 3.3-5.7 1.4-1.7 3.3-3 5.5-3.9 2.2-1 4.7-1.5 7.3-1.5 2.7 0 5 .5 7 1.4 2 .9 3.6 2.2 4.7 3.9 1.2 1.7 2 3.5 2.6 5.6.6 2.1.8 4.4.8 6.9 0 .6-.1 1.1-.2 1.5h-23.7c.1 3.3 1.1 5.8 3 7.4 1.9 1.6 4.4 2.4 7.5 2.4 3.6 0 7.2-1.2 10.7-3.6l2.2 6c-2.1 1.5-4.3 2.6-6.4 3.3-2 .4-4.4.8-7.1.8m-9.6-21.9h16.8c-.4-2.4-1.3-4.3-2.7-5.5-1.4-1.3-3.1-1.9-5.1-1.9-2.4 0-4.3.7-5.9 2-1.6 1.3-2.6 3.1-3.1 5.4M162.7 10h8.1v48.3h-8.1V10zm-19.8 49.1c-5.7 0-10.2-1.6-13.5-4.9-3.3-3.3-4.9-7.5-4.9-12.8 0-2.4.4-4.7 1.2-6.8.8-2.1 1.9-4 3.3-5.7 1.4-1.7 3.3-3 5.5-3.9 2.2-1 4.7-1.5 7.3-1.5 2.7 0 5 .5 7 1.4 2 .9 3.6 2.2 4.7 3.9 1.2 1.7 2 3.5 2.6 5.6.6 2.1.8 4.4.8 6.9 0 .6-.1 1.1-.2 1.5H133c.1 3.3 1.1 5.8 3 7.4 1.9 1.6 4.4 2.4 7.5 2.4 3.6 0 7.2-1.2 10.7-3.6l2.2 6c-2.1 1.5-4.3 2.6-6.4 3.3-2 .4-4.4.8-7.1.8m-9.6-21.9h16.8c-.4-2.4-1.3-4.3-2.7-5.5-1.4-1.3-3.1-1.9-5.1-1.9-2.4 0-4.3.7-5.9 2-1.5 1.3-2.6 3.1-3.1 5.4m-13.5 21.1h-3.3c-1.3 0-2.5 0-3.4-.1-1-.1-2-.2-3-.4s-1.9-.5-2.6-.9c-.7-.4-1.4-.9-2.1-1.5-.7-.6-1.2-1.4-1.6-2.2-.4-.9-.7-1.9-.9-3.1-.2-1.2-.3-2.6-.3-4.2v-16h-7.1v-5.5h7.4v-8l7.8-2.4v10.4h8.8v5.5h-8.8v16.5c0 1.1.1 1.9.2 2.6.2.7.4 1.2.7 1.6.3.4.9.7 1.7.9.8.2 1.6.3 2.6.4.9.1 2.2.1 3.9.1v6.3zM382.2 16.8c0 2.3.4 4 1.3 5.1.9 1.1 2.1 1.7 3.9 1.7 3.4 0 5.2-2.3 5.2-6.8 0-4.6-1.7-6.9-5.1-6.9-1.7 0-3 .6-3.9 1.7-.9 1.2-1.4 2.9-1.4 5.2m14.9 0c0 2.4-.4 4.4-1.3 6-.8 1.6-2.1 2.8-3.7 3.5l4.9 5.5h-5.5l-3.7-4.6h-.3c-3.1 0-5.5-.9-7.2-2.7-1.7-1.8-2.5-4.4-2.5-7.8 0-3.4.8-6 2.5-7.7 1.7-1.8 4.1-2.7 7.2-2.7 3.1 0 5.5.9 7.2 2.7 1.5 1.8 2.4 4.4 2.4 7.8M373.5 27h-4.3v-8.8h-8V27h-4.3V6.6h4.3v8h8v-8h4.3V27z"/></svg>