<svg width="113" height="25" fill="none" xmlns="http://www.w3.org/2000/svg"><path fill-rule="evenodd" clip-rule="evenodd" d="M92.818 19.47h-1.235c-.487 0-.936 0-1.273-.038a11.521 11.521 0 0 1-1.124-.15 3.299 3.299 0 0 1-.973-.337 5.113 5.113 0 0 1-.786-.561c-.262-.225-.45-.524-.6-.824a4.722 4.722 0 0 1-.336-1.16 9.674 9.674 0 0 1-.113-1.573v-5.99H83.72v-2.06h2.77V3.782l2.921-.9v3.895h3.295v2.06h-3.295v6.177c0 .412.038.712.075.974.075.262.15.449.262.599.112.15.337.262.637.337.3.075.599.112.973.15.337.037.824.037 1.46.037v2.359zm-18.346 0V9.96c0-.487-.038-1.012-.075-1.536a24.753 24.753 0 0 0-.112-1.235l-.075-.45h3.257v1.685a6.275 6.275 0 0 1 1.498-1.497c.487-.337 1.048-.487 1.685-.487.374 0 .786.075 1.273.187v2.696a4.723 4.723 0 0 0-1.535-.262c-.862 0-1.535.262-2.06.824-.524.561-.786 1.348-.786 2.396v7.226h-3.07v-.037zm-8.687-2.21c.6 0 1.124-.112 1.573-.336.45-.225.824-.525 1.086-.936.262-.412.449-.862.561-1.348a6.958 6.958 0 0 0 .188-1.573c0-1.198-.3-2.209-.862-2.995-.561-.787-1.422-1.16-2.546-1.16-.748 0-1.422.186-1.947.56a3.19 3.19 0 0 0-1.123 1.498c-.225.6-.337 1.31-.337 2.097 0 .786.112 1.46.337 2.06.225.598.6 1.123 1.123 1.534.487.412 1.161.6 1.947.6zm.038 2.51c-1.086 0-2.097-.188-2.958-.525-.861-.374-1.573-.861-2.097-1.46a6.126 6.126 0 0 1-1.198-2.097 8.063 8.063 0 0 1-.412-2.546c0-.936.15-1.76.412-2.583a6.126 6.126 0 0 1 1.236-2.135c.524-.599 1.235-1.085 2.096-1.46.861-.374 1.835-.524 2.92-.524 1.087 0 2.097.187 2.921.524.861.337 1.535.824 2.06 1.46.524.6.898 1.31 1.16 2.135.262.786.375 1.684.375 2.62a7.83 7.83 0 0 1-.412 2.509 6.128 6.128 0 0 1-1.198 2.097c-.524.636-1.198 1.123-2.06 1.46-.786.337-1.76.524-2.845.524zm-20.93 4.605V11.008c0-.749-.075-2.172-.225-4.269h3.258v1.835c.112-.45.524-.936 1.235-1.423.712-.486 1.61-.711 2.658-.711 1.124 0 2.097.3 2.958.936.862.599 1.498 1.423 1.91 2.396.45.974.637 2.06.637 3.22 0 .861-.113 1.722-.375 2.509-.262.786-.599 1.535-1.086 2.171a5.46 5.46 0 0 1-1.797 1.536 5.291 5.291 0 0 1-2.434.561c-1.01 0-1.834-.224-2.546-.711-.711-.487-1.085-.899-1.198-1.31v6.664h-2.995v-.037zm6.065-7.114c.562 0 1.049-.113 1.498-.337a2.691 2.691 0 0 0 1.011-.936c.225-.412.412-.824.562-1.31.112-.488.187-1.012.187-1.574 0-.786-.113-1.497-.337-2.096-.225-.6-.562-1.123-1.086-1.498a2.993 2.993 0 0 0-1.835-.599c-.711 0-1.31.187-1.797.562-.487.374-.861.86-1.048 1.46-.225.599-.337 1.273-.337 2.06 0 .56.075 1.123.187 1.61.112.486.3.935.562 1.347a2.69 2.69 0 0 0 1.01.936c.375.262.862.375 1.423.375zm-13.666 2.508c-2.134 0-3.819-.599-5.055-1.834-1.235-1.236-1.834-2.809-1.834-4.793 0-.899.15-1.76.45-2.546.299-.786.71-1.498 1.235-2.134.524-.637 1.235-1.123 2.059-1.46.824-.375 1.76-.562 2.733-.562 1.011 0 1.872.187 2.621.524.749.337 1.348.824 1.76 1.46.45.637.749 1.31.973 2.097.225.786.3 1.647.3 2.583 0 .225-.038.412-.075.562h-8.874c.038 1.236.412 2.172 1.124 2.77.711.6 1.647.9 2.808.9 1.348 0 2.696-.45 4.006-1.348l.824 2.246a9.136 9.136 0 0 1-2.397 1.236c-.748.15-1.647.3-2.658.3zm-3.594-8.2h6.29c-.15-.898-.487-1.61-1.011-2.059-.524-.487-1.16-.711-1.91-.711-.898 0-1.61.262-2.209.749-.599.486-.973 1.16-1.16 2.021zM25.16 1.385h3.033V19.47H25.16V1.385zM17.747 19.77c-2.134 0-3.819-.599-5.054-1.834-1.236-1.236-1.835-2.809-1.835-4.793 0-.899.15-1.76.45-2.546.299-.786.71-1.498 1.235-2.134.524-.637 1.236-1.123 2.06-1.46.823-.375 1.76-.562 2.733-.562 1.01 0 1.872.187 2.62.524.75.337 1.349.824 1.76 1.46.45.637.75 1.31.974 2.097.224.786.3 1.647.3 2.583 0 .225-.038.412-.075.562H14.04c.037 1.236.412 2.172 1.123 2.77.711.6 1.647.9 2.808.9 1.348 0 2.696-.45 4.006-1.348l.824 2.246a9.137 9.137 0 0 1-2.396 1.236c-.749.15-1.648.3-2.659.3zm-3.594-8.2h6.29c-.15-.898-.487-1.61-1.01-2.059-.525-.487-1.161-.711-1.91-.711-.899 0-1.61.262-2.21.749-.56.486-.973 1.16-1.16 2.021zm-5.055 7.9H7.863c-.487 0-.936 0-1.273-.037a11.522 11.522 0 0 1-1.123-.15 3.299 3.299 0 0 1-.974-.337 5.113 5.113 0 0 1-.786-.561c-.262-.225-.45-.524-.6-.824a4.723 4.723 0 0 1-.336-1.16 9.675 9.675 0 0 1-.113-1.573v-5.99H0v-2.06h2.77V3.782l2.921-.9v3.895h3.295v2.06H5.691v6.177c0 .412.038.712.075.974.075.262.15.449.262.599.113.15.337.262.637.337.3.075.599.112.973.15.337.037.824.037 1.46.037v2.359zM107.346 3.931c0 .862.15 1.498.487 1.91.336.412.786.636 1.46.636 1.273 0 1.947-.86 1.947-2.546 0-1.722-.637-2.583-1.91-2.583-.636 0-1.123.225-1.46.636-.337.45-.524 1.086-.524 1.947zm5.579 0c0 .899-.15 1.648-.487 2.247-.3.599-.786 1.048-1.385 1.31l1.834 2.06h-2.059l-1.385-1.723h-.113c-1.161 0-2.059-.337-2.696-1.01-.636-.675-.936-1.648-.936-2.921s.3-2.247.936-2.883C107.271.337 108.169 0 109.33 0c1.161 0 2.059.337 2.696 1.01.562.675.899 1.648.899 2.921zm-8.837 3.82h-1.61V4.455h-2.995V7.75h-1.61V.112h1.61v2.996h2.995V.112h1.61V7.75z" fill="#24272E"/></svg>