<svg width="139" height="33" fill="none" xmlns="http://www.w3.org/2000/svg"><path fill-rule="evenodd" clip-rule="evenodd" d="M122.142 22.458h-.997c-.393 0-.755 0-1.027-.03a9.329 9.329 0 0 1-.907-.122 2.656 2.656 0 0 1-.785-.271 4.132 4.132 0 0 1-.635-.454c-.211-.181-.362-.423-.483-.664a3.787 3.787 0 0 1-.272-.937 7.743 7.743 0 0 1-.091-1.27v-4.834H114.8v-1.662h2.236V9.797l2.357-.725v3.142h2.659v1.662h-2.659v4.986c0 .332.03.574.06.786.06.211.121.362.212.483.09.12.272.212.513.272.242.06.484.09.786.12.272.031.665.031 1.178.031v1.904zm-14.806 0v-7.675c0-.393-.03-.816-.06-1.24-.03-.422-.061-.755-.091-.996l-.06-.363h2.629v1.36a5.044 5.044 0 0 1 1.208-1.209c.393-.272.846-.393 1.36-.393.302 0 .635.06 1.027.151v2.176a3.808 3.808 0 0 0-1.238-.212c-.695 0-1.239.212-1.662.665-.423.454-.635 1.088-.635 1.934v5.832h-2.478v-.03zm-7.01-1.783c.484 0 .907-.09 1.269-.272.363-.181.665-.423.877-.755a3.48 3.48 0 0 0 .453-1.088c.09-.393.151-.816.151-1.27 0-.966-.242-1.782-.695-2.417-.453-.634-1.148-.936-2.055-.936-.604 0-1.148.15-1.571.453a2.574 2.574 0 0 0-.906 1.208c-.182.484-.273 1.058-.273 1.693 0 .634.091 1.178.273 1.662.18.483.483.906.906 1.238.393.333.937.484 1.571.484zm.03 2.024c-.876 0-1.692-.15-2.387-.423-.695-.302-1.269-.695-1.692-1.178a4.944 4.944 0 0 1-.967-1.692 6.507 6.507 0 0 1-.332-2.055c0-.755.12-1.42.332-2.085a4.945 4.945 0 0 1 .997-1.722c.424-.484.998-.877 1.693-1.179.695-.302 1.48-.423 2.356-.423.877 0 1.693.151 2.357.423.695.272 1.239.665 1.662 1.179.423.483.725 1.057.937 1.722.211.635.302 1.36.302 2.115 0 .726-.121 1.39-.332 2.025a4.953 4.953 0 0 1-.967 1.692c-.423.514-.967.906-1.662 1.178-.635.272-1.42.423-2.297.423zm-16.89 3.717V15.629c0-.605-.06-1.753-.182-3.445h2.63v1.48c.09-.362.422-.755.996-1.147.574-.393 1.3-.575 2.146-.575.906 0 1.692.242 2.387.756.695.483 1.208 1.148 1.54 1.934.363.785.514 1.662.514 2.598 0 .695-.09 1.39-.302 2.025-.211.634-.483 1.239-.876 1.752a4.406 4.406 0 0 1-1.45 1.24 4.27 4.27 0 0 1-1.965.452c-.815 0-1.48-.181-2.054-.574-.574-.393-.876-.725-.967-1.057v5.378h-2.417v-.03zm4.895-5.741c.453 0 .846-.09 1.208-.272.333-.181.605-.423.816-.755.181-.333.332-.665.453-1.058.091-.393.151-.816.151-1.27 0-.634-.09-1.208-.272-1.691-.18-.484-.453-.907-.876-1.209a2.415 2.415 0 0 0-1.48-.483c-.575 0-1.058.15-1.45.453a2.378 2.378 0 0 0-.847 1.178c-.181.484-.272 1.028-.272 1.662 0 .453.06.907.151 1.3.09.392.242.755.454 1.087.211.333.483.574.815.756.302.211.695.302 1.149.302zm-11.03 2.024c-1.722 0-3.081-.483-4.079-1.48-.997-.997-1.48-2.267-1.48-3.868 0-.725.12-1.42.362-2.055a6.112 6.112 0 0 1 .998-1.722c.423-.514.997-.906 1.661-1.178A5.335 5.335 0 0 1 77 11.942c.816 0 1.511.151 2.115.423.605.272 1.088.665 1.42 1.179.363.513.605 1.057.786 1.692.181.634.242 1.33.242 2.085 0 .181-.03.332-.06.453H74.34c.03.997.333 1.753.907 2.236.574.483 1.33.725 2.266.725 1.088 0 2.175-.362 3.233-1.087l.665 1.813c-.635.453-1.3.785-1.934.997-.604.12-1.33.241-2.145.241zm-2.9-6.617h5.076c-.12-.725-.393-1.3-.816-1.662-.423-.393-.936-.574-1.54-.574-.726 0-1.3.211-1.783.604-.484.393-.786.937-.937 1.632zm-6.89-8.219h2.448v14.595h-2.447V7.863zM61.56 22.7c-1.722 0-3.082-.483-4.08-1.48-.996-.997-1.48-2.267-1.48-3.868 0-.725.12-1.42.363-2.055a6.113 6.113 0 0 1 .997-1.722c.423-.514.997-.906 1.662-1.178a5.335 5.335 0 0 1 2.205-.454c.816 0 1.511.151 2.116.423.604.272 1.087.665 1.42 1.179.362.513.604 1.057.785 1.692.182.634.242 1.33.242 2.085 0 .181-.03.332-.06.453h-7.162c.03.997.333 1.753.907 2.236.574.483 1.33.725 2.266.725 1.088 0 2.176-.362 3.233-1.087l.665 1.813c-.635.453-1.3.785-1.934.997-.604.12-1.33.241-2.145.241zm-2.9-6.617h5.075c-.12-.725-.392-1.3-.816-1.662-.422-.393-.936-.574-1.54-.574-.726 0-1.3.211-1.783.604-.453.393-.786.937-.937 1.632zm-4.08 6.376h-.997c-.393 0-.756 0-1.028-.03a9.319 9.319 0 0 1-.906-.122 2.663 2.663 0 0 1-.786-.271 4.13 4.13 0 0 1-.634-.454c-.212-.181-.363-.423-.484-.664a3.813 3.813 0 0 1-.272-.937 7.814 7.814 0 0 1-.09-1.27v-4.834h-2.146v-1.662h2.236V9.797l2.357-.725v3.142h2.66v1.662h-2.66v4.986c0 .332.03.574.06.786.061.211.121.362.212.483.09.12.272.212.514.272.241.06.483.09.785.12.272.031.665.031 1.179.031v1.904zM133.866 9.918c0 .695.121 1.209.393 1.54.272.333.635.515 1.179.515 1.027 0 1.571-.695 1.571-2.055 0-1.39-.514-2.085-1.541-2.085-.514 0-.907.181-1.179.514-.272.362-.423.876-.423 1.57zm4.503 0c0 .725-.121 1.33-.393 1.813a2.242 2.242 0 0 1-1.118 1.057l1.48 1.662h-1.662l-1.118-1.39h-.09c-.937 0-1.662-.272-2.176-.816-.513-.543-.755-1.329-.755-2.356 0-1.028.242-1.813.755-2.327.514-.544 1.239-.816 2.176-.816s1.662.272 2.175.816c.454.544.726 1.33.726 2.357zM131.238 13h-1.3v-2.66h-2.417V13h-1.299V6.836h1.299v2.417h2.417V6.836h1.3V13z" fill="#24272E"/><mask id="a" maskUnits="userSpaceOnUse" x="0" y="0" width="33" height="33"><rect x=".368" y=".236" width="32.547" height="32.547" rx="16.274" fill="#fff"/></mask><g mask="url(#a)"><rect x=".368" y=".236" width="32.547" height="32.547" rx="16.274" fill="url(#paint0_linear)" filter="url(#filter0_i)"/><rect x="12.736" y="11.548" width="24.279" height="24.279" rx="5" transform="rotate(-16.157 12.736 11.548)" fill="url(#paint1_linear)" filter="url(#filter1_d)"/><path d="M21.662 20.48L.737 27.855c-3.859 1.36-7.628-2.237-6.45-6.155L.038 2.563C1.05-.797 5.117-2.099 7.891.051l15.172 11.761c3.129 2.425 2.333 7.352-1.4 8.668z" fill="url(#paint2_linear)" filter="url(#filter2_d)"/></g><defs><filter id="filter0_i" x=".368" y=".236" width="32.547" height="32.547" filterUnits="userSpaceOnUse" color-interpolation-filters="sRGB"><feFlood flood-opacity="0" result="BackgroundImageFix"/><feBlend in="SourceGraphic" in2="BackgroundImageFix" result="shape"/><feColorMatrix in="SourceAlpha" values="0 0 0 0 0 0 0 0 0 0 0 0 0 0 0 0 0 0 127 0" result="hardAlpha"/><feOffset/><feGaussianBlur stdDeviation="1"/><feComposite in2="hardAlpha" operator="arithmetic" k2="-1" k3="1"/><feColorMatrix values="0 0 0 0 0 0 0 0 0 0 0 0 0 0 0 0 0 0 0.25 0"/><feBlend in2="shape" result="effect1_innerShadow"/></filter><filter id="filter1_d" x="8.736" y="1.792" width="38.076" height="38.076" filterUnits="userSpaceOnUse" color-interpolation-filters="sRGB"><feFlood flood-opacity="0" result="BackgroundImageFix"/><feColorMatrix in="SourceAlpha" values="0 0 0 0 0 0 0 0 0 0 0 0 0 0 0 0 0 0 127 0"/><feOffset dy="1"/><feGaussianBlur stdDeviation="2"/><feColorMatrix values="0 0 0 0 0 0 0 0 0 0 0 0 0 0 0 0 0 0 0.05 0"/><feBlend in2="BackgroundImageFix" result="effect1_dropShadow"/><feBlend in="SourceGraphic" in2="effect1_dropShadow" result="shape"/></filter><filter id="filter2_d" x="-16.676" y="-8.835" width="47.061" height="43.355" filterUnits="userSpaceOnUse" color-interpolation-filters="sRGB"><feFlood flood-opacity="0" result="BackgroundImageFix"/><feColorMatrix in="SourceAlpha" values="0 0 0 0 0 0 0 0 0 0 0 0 0 0 0 0 0 0 127 0"/><feOffset dy="1"/><feGaussianBlur stdDeviation="2"/><feColorMatrix values="0 0 0 0 0 0 0 0 0 0 0 0 0 0 0 0 0 0 0.05 0"/><feBlend in2="BackgroundImageFix" result="effect1_dropShadow"/><feBlend in="SourceGraphic" in2="effect1_dropShadow" result="shape"/></filter><linearGradient id="paint0_linear" x1="5.25" y1="45.151" x2="29.01" y2="-2.043" gradientUnits="userSpaceOnUse"><stop offset=".044" stop-color="#24272E" stop-opacity=".75"/><stop offset=".557" stop-color="#24272E" stop-opacity=".25"/><stop offset="1" stop-color="#24272E" stop-opacity=".5"/></linearGradient><linearGradient id="paint1_linear" x1="24.876" y1="11.548" x2="24.876" y2="35.827" gradientUnits="userSpaceOnUse"><stop stop-color="#fff"/><stop offset="1" stop-color="#fff" stop-opacity="0"/></linearGradient><linearGradient id="paint2_linear" x1=".921" y1="-3.982" x2="9.453" y2="26.853" gradientUnits="userSpaceOnUse"><stop offset=".328" stop-color="#fff" stop-opacity=".8"/><stop offset="1" stop-color="#fff" stop-opacity=".25"/></linearGradient></defs></svg>
